# xmcd
#
# Track frame offsets:
#	150
#	18394
#	36702
#	52368
#	63596
#	76386
#	89098
#	102632
#	116129
#	134676
#	150000
#	161052
#	175826
#	191675
#	211401
#	229032
#	253552
#	276077
#	287573
#	316393
#
# Disc length: 4444 seconds
#
# Revision: 0
# Processed by: cddbd v1.5.2PL0 Copyright (c) Steve Scherf et al.
# Submitted via: FairStars CD Ripper 2.00
#
DISCID=2f115a14
DTITLE=Bert Jansch - Just a Simple Soul - 2
DYEAR=2018
DGENRE=Chanson
TTITLE0=Fresh as a sweet Sunday morning
TTITLE1=Chambertain
TTITLE2=The blacksmith
TTITLE3=Baby blue
TTITLE4=Daybreak
TTITLE5=Kittiwake
TTITLE6=Up to the stars
TTITLE7=Sweet rose
TTITLE8=The road tae Dundee
TTITLE9=Let me sing (Live)
TTITLE10=When the circus comes to town
TTITLE11=Morning brings peace of wind
TTITLE12=Toy ballon
TTITLE13=Carnival
TTITLE14=Just a simple soul
TTITLE15=Crimson moon
TTITLE16=Omie wise
TTITLE17=On the edge of a dream
TTITLE18=The black swan
TTITLE19=High days
EXTD=
EXTT0=
EXTT1=
EXTT2=
EXTT3=
EXTT4=
EXTT5=
EXTT6=
EXTT7=
EXTT8=
EXTT9=
EXTT10=
EXTT11=
EXTT12=
EXTT13=
EXTT14=
EXTT15=
EXTT16=
EXTT17=
EXTT18=
EXTT19=
PLAYORDER=
